<svg xmlns="http://www.w3.org/2000/svg" xmlns:xlink="http://www.w3.org/1999/xlink" preserveAspectRatio="xMidYMid" width="119" height="44" viewBox="0 0 119 44">
  <defs>
    <style>

      .cls-2 {
        fill: #3BBDE0;
      }
    </style>
  </defs>
  <path d="M117.721,3.958 C117.721,3.958 116.883,3.958 116.883,3.958 C115.753,3.961 114.104,4.037 112.871,4.665 C111.648,5.285 111.055,6.363 111.059,7.955 C111.059,7.955 111.064,9.430 111.064,9.430 C111.064,9.430 116.537,9.414 116.537,9.414 C116.537,9.414 116.079,13.333 116.079,13.333 C116.079,13.333 111.073,13.348 111.073,13.348 C111.073,13.348 111.116,28.857 111.116,28.857 C111.132,34.391 107.827,38.363 106.405,39.813 C106.405,39.813 105.472,40.761 105.472,40.761 C105.472,40.761 105.417,40.686 105.417,40.686 C103.917,41.881 100.633,43.987 96.115,44.000 C93.476,44.000 90.811,43.295 87.724,42.477 C83.574,41.379 78.871,40.132 72.738,40.132 C72.738,40.132 72.597,40.132 72.597,40.132 C71.403,40.135 70.254,40.190 69.116,40.271 C69.116,40.271 69.294,42.520 69.294,42.520 C69.294,42.520 64.383,38.464 64.383,38.464 C64.383,38.464 68.621,33.995 68.621,33.995 C68.621,33.995 68.793,36.178 68.793,36.178 C70.067,36.093 71.365,36.033 72.702,36.028 C72.702,36.028 72.868,36.028 72.868,36.028 C80.811,36.028 86.089,37.570 89.943,38.696 C92.347,39.400 94.233,39.954 95.986,39.954 C100.376,39.941 103.610,37.083 103.745,36.962 C106.650,33.656 107.123,31.223 107.108,26.709 C107.108,26.709 107.071,13.358 107.071,13.358 C107.071,13.358 100.338,13.378 100.338,13.378 C100.338,13.378 100.376,27.578 100.376,27.578 C100.384,30.035 98.380,31.855 96.941,32.076 C96.941,32.076 96.116,32.209 96.116,32.209 C96.116,32.209 94.562,29.130 94.562,29.130 C94.562,29.130 95.343,28.555 95.343,28.555 C96.360,27.802 96.379,27.788 96.372,25.429 C96.372,25.429 96.337,13.386 96.337,13.386 C96.337,13.386 91.753,13.398 91.753,13.398 C91.753,13.398 92.210,9.481 92.210,9.481 C92.210,9.481 96.328,9.468 96.328,9.468 C96.328,9.468 96.324,7.956 96.324,7.956 C96.316,5.181 97.119,3.202 98.780,1.904 C100.381,0.653 102.826,0.040 106.256,0.031 C106.256,0.031 107.841,0.025 107.841,0.025 C107.841,0.025 106.563,3.990 106.563,3.990 C106.563,3.990 105.723,3.990 105.723,3.990 C104.635,3.993 103.056,4.069 101.935,4.697 C100.845,5.309 100.317,6.383 100.323,7.985 C100.323,7.985 100.327,9.458 100.327,9.458 C100.327,9.458 107.062,9.440 107.062,9.440 C107.062,9.440 107.058,7.926 107.058,7.926 C107.044,2.390 110.142,0.021 117.417,-0.001 C117.417,-0.001 119.000,-0.001 119.000,-0.001 C119.000,-0.001 117.721,3.958 117.721,3.958 ZM90.680,32.106 C90.680,32.106 89.912,32.106 89.912,32.106 C88.862,32.106 87.797,31.165 87.121,30.044 C84.930,31.763 82.004,32.050 80.340,32.055 C80.340,32.055 80.040,32.057 80.040,32.057 C77.443,32.057 70.537,32.055 70.514,23.412 C70.514,23.412 70.476,9.458 70.476,9.458 C70.476,9.458 74.592,9.448 74.592,9.448 C74.592,9.448 74.630,23.477 74.630,23.477 C74.639,25.648 75.320,27.866 80.323,27.866 C84.245,27.856 86.047,26.268 86.037,22.865 C86.037,22.865 86.002,9.416 86.002,9.416 C86.002,9.416 90.116,9.405 90.116,9.405 C90.116,9.405 90.161,25.479 90.161,25.479 C90.167,27.547 90.531,27.960 91.289,28.628 C91.289,28.628 91.906,29.172 91.906,29.172 C91.906,29.172 90.680,32.106 90.680,32.106 ZM59.799,19.229 C59.799,19.229 52.070,19.250 52.070,19.250 C52.070,19.250 52.091,27.550 52.091,27.550 C52.100,30.023 49.687,32.068 49.413,32.293 C49.413,32.293 48.207,33.275 48.207,33.275 C48.207,33.275 46.545,29.234 46.545,29.234 C46.545,29.234 47.218,28.697 47.218,28.697 C47.233,28.683 47.976,28.034 47.974,27.252 C47.974,27.252 47.904,1.615 47.904,1.615 C47.904,1.615 59.779,1.582 59.779,1.582 C66.087,1.582 69.291,4.568 69.304,10.455 C69.320,16.098 65.944,19.213 59.799,19.229 ZM60.942,5.729 C60.942,5.729 60.942,4.985 60.942,4.985 C60.942,4.985 60.921,5.729 60.921,5.729 C60.921,5.729 52.030,5.753 52.030,5.753 C52.030,5.753 52.057,15.140 52.057,15.140 C52.057,15.140 59.751,15.118 59.751,15.118 C61.631,15.114 63.040,14.730 63.940,13.977 C64.812,13.248 65.234,12.164 65.229,10.659 C65.219,7.480 63.697,5.729 60.942,5.729 ZM35.110,32.292 C35.110,32.292 34.459,32.293 34.459,32.293 C31.568,32.293 28.822,31.172 26.728,29.133 C24.655,27.074 23.513,24.321 23.503,21.378 C23.503,21.378 23.501,20.415 23.501,20.415 C23.492,17.472 24.619,14.714 26.674,12.651 C28.774,10.585 31.525,9.446 34.429,9.438 C34.429,9.438 35.048,9.436 35.048,9.436 C38.012,9.436 40.761,10.562 42.818,12.606 C44.910,14.680 46.065,17.433 46.074,20.352 C46.074,20.352 46.078,21.315 46.078,21.315 C46.083,24.236 44.943,26.992 42.866,29.081 C40.810,31.143 38.056,32.283 35.110,32.292 ZM41.958,20.362 C41.948,16.606 38.861,13.549 35.078,13.549 C35.078,13.549 35.078,12.801 35.078,12.801 C35.078,12.801 35.057,13.549 35.057,13.549 C35.057,13.549 34.438,13.550 34.438,13.550 C30.666,13.561 27.606,16.634 27.617,20.404 C27.617,20.404 27.621,21.365 27.621,21.365 C27.630,25.125 30.697,28.181 34.457,28.181 C34.457,28.181 35.100,28.181 35.100,28.181 C36.933,28.177 38.660,27.459 39.956,26.162 C41.253,24.867 41.965,23.148 41.960,21.327 C41.960,21.327 41.958,20.362 41.958,20.362 ZM20.789,16.673 C20.789,16.673 20.828,30.983 20.828,30.983 C20.837,34.256 19.663,36.899 17.432,38.625 C15.608,40.038 13.074,40.819 10.300,40.827 C10.300,40.827 10.255,40.827 10.255,40.827 C6.627,40.827 3.119,39.596 1.526,37.764 C1.526,37.764 0.753,36.878 0.753,36.878 C0.753,36.878 3.699,34.437 3.699,34.437 C3.699,34.437 4.434,35.040 4.434,35.040 C5.857,36.205 7.849,36.874 9.902,36.874 C13.264,36.865 16.840,35.021 16.830,30.994 C16.830,30.994 16.826,30.269 16.826,30.269 C15.495,31.262 13.536,32.115 10.722,32.124 C3.912,32.124 0.024,28.411 0.004,21.938 C0.004,21.938 -0.001,19.395 -0.001,19.395 C-0.020,12.649 5.428,9.560 10.498,9.545 C13.256,9.545 15.672,10.368 17.346,11.837 C17.965,10.534 19.054,9.284 20.473,8.919 C20.473,8.919 21.690,8.604 21.690,8.604 C21.690,8.604 22.341,12.555 22.341,12.555 C22.341,12.555 21.774,12.974 21.774,12.974 C21.004,13.537 20.784,14.367 20.789,16.673 ZM16.719,19.461 C16.711,16.278 14.110,13.687 10.922,13.687 C10.922,13.687 10.922,12.942 10.922,12.942 C10.922,12.942 10.904,13.687 10.904,13.687 C10.904,13.687 10.092,13.690 10.092,13.690 C6.803,13.698 4.027,16.357 4.037,19.497 C4.037,19.497 4.045,22.273 4.045,22.273 C4.054,25.384 6.835,28.012 10.116,28.012 C10.116,28.012 10.941,28.009 10.941,28.009 C12.497,28.006 13.956,27.399 15.052,26.298 C16.136,25.209 16.732,23.766 16.726,22.241 C16.726,22.241 16.719,19.461 16.719,19.461 Z" id="path-1" class="cls-2" fill-rule="evenodd"/>
</svg>
